<mxfile host="app.diagrams.net" modified="2023-08-27T18:57:20.571Z" agent="Mozilla/5.0 (Windows NT 10.0; Win64; x64) AppleWebKit/537.36 (KHTML, like Gecko) Chrome/116.0.0.0 Safari/537.36" etag="S5PIT36qkTgk1o-gkQ8_" version="21.6.8" type="google">
  <diagram name="Page-1" id="KoPTbsZ7SI3JWkjUEurk">
    <mxGraphModel grid="1" page="1" gridSize="10" guides="1" tooltips="1" connect="1" arrows="1" fold="1" pageScale="1" pageWidth="1920" pageHeight="1200" math="0" shadow="0">
      <root>
        <mxCell id="0" />
        <mxCell id="1" parent="0" />
        <mxCell id="kfsKnqZZ0kBtD0sSIxjU-58" value="" style="shape=table;startSize=0;container=1;collapsible=0;childLayout=tableLayout;labelBackgroundColor=none;fillColor=#F2CC8F;strokeColor=#E07A5F;fontColor=#393C56;" vertex="1" parent="1">
          <mxGeometry x="690" y="80" width="400" height="40" as="geometry" />
        </mxCell>
        <mxCell id="kfsKnqZZ0kBtD0sSIxjU-59" value="" style="shape=tableRow;horizontal=0;startSize=0;swimlaneHead=0;swimlaneBody=0;strokeColor=#E07A5F;top=0;left=0;bottom=0;right=0;collapsible=0;dropTarget=0;fillColor=none;points=[[0,0.5],[1,0.5]];portConstraint=eastwest;labelBackgroundColor=none;fontColor=#393C56;" vertex="1" parent="kfsKnqZZ0kBtD0sSIxjU-58">
          <mxGeometry width="400" height="40" as="geometry" />
        </mxCell>
        <mxCell id="kfsKnqZZ0kBtD0sSIxjU-60" value="&lt;u&gt;Username&lt;/u&gt;" style="shape=partialRectangle;html=1;whiteSpace=wrap;connectable=0;strokeColor=#E07A5F;overflow=hidden;fillColor=none;top=0;left=0;bottom=0;right=0;pointerEvents=1;labelBackgroundColor=none;fontColor=#393C56;" vertex="1" parent="kfsKnqZZ0kBtD0sSIxjU-59">
          <mxGeometry width="60" height="40" as="geometry">
            <mxRectangle width="60" height="40" as="alternateBounds" />
          </mxGeometry>
        </mxCell>
        <mxCell id="kfsKnqZZ0kBtD0sSIxjU-61" value="User_ID" style="shape=partialRectangle;html=1;whiteSpace=wrap;connectable=0;strokeColor=#E07A5F;overflow=hidden;fillColor=none;top=0;left=0;bottom=0;right=0;pointerEvents=1;labelBackgroundColor=none;fontColor=#393C56;" vertex="1" parent="kfsKnqZZ0kBtD0sSIxjU-59">
          <mxGeometry x="60" width="60" height="40" as="geometry">
            <mxRectangle width="60" height="40" as="alternateBounds" />
          </mxGeometry>
        </mxCell>
        <mxCell id="kfsKnqZZ0kBtD0sSIxjU-62" value="Name" style="shape=partialRectangle;html=1;whiteSpace=wrap;connectable=0;strokeColor=#E07A5F;overflow=hidden;fillColor=none;top=0;left=0;bottom=0;right=0;pointerEvents=1;labelBackgroundColor=none;fontColor=#393C56;" vertex="1" parent="kfsKnqZZ0kBtD0sSIxjU-59">
          <mxGeometry x="120" width="60" height="40" as="geometry">
            <mxRectangle width="60" height="40" as="alternateBounds" />
          </mxGeometry>
        </mxCell>
        <mxCell id="kfsKnqZZ0kBtD0sSIxjU-64" value="Phone" style="shape=partialRectangle;html=1;whiteSpace=wrap;connectable=0;strokeColor=#E07A5F;overflow=hidden;fillColor=none;top=0;left=0;bottom=0;right=0;pointerEvents=1;labelBackgroundColor=none;fontColor=#393C56;" vertex="1" parent="kfsKnqZZ0kBtD0sSIxjU-59">
          <mxGeometry x="180" width="100" height="40" as="geometry">
            <mxRectangle width="100" height="40" as="alternateBounds" />
          </mxGeometry>
        </mxCell>
        <mxCell id="kfsKnqZZ0kBtD0sSIxjU-65" value="Password" style="shape=partialRectangle;html=1;whiteSpace=wrap;connectable=0;strokeColor=#E07A5F;overflow=hidden;fillColor=none;top=0;left=0;bottom=0;right=0;pointerEvents=1;labelBackgroundColor=none;fontColor=#393C56;" vertex="1" parent="kfsKnqZZ0kBtD0sSIxjU-59">
          <mxGeometry x="280" width="60" height="40" as="geometry">
            <mxRectangle width="60" height="40" as="alternateBounds" />
          </mxGeometry>
        </mxCell>
        <mxCell id="kfsKnqZZ0kBtD0sSIxjU-66" value="Email" style="shape=partialRectangle;html=1;whiteSpace=wrap;connectable=0;strokeColor=#E07A5F;overflow=hidden;fillColor=none;top=0;left=0;bottom=0;right=0;pointerEvents=1;labelBackgroundColor=none;fontColor=#393C56;" vertex="1" parent="kfsKnqZZ0kBtD0sSIxjU-59">
          <mxGeometry x="340" width="60" height="40" as="geometry">
            <mxRectangle width="60" height="40" as="alternateBounds" />
          </mxGeometry>
        </mxCell>
        <mxCell id="kfsKnqZZ0kBtD0sSIxjU-67" value="&lt;font style=&quot;font-size: 16px;&quot;&gt;Admin&lt;/font&gt;" style="text;html=1;align=center;verticalAlign=middle;resizable=0;points=[];autosize=1;strokeColor=none;fillColor=none;labelBackgroundColor=none;fontColor=#393C56;" vertex="1" parent="1">
          <mxGeometry x="815" y="50" width="70" height="30" as="geometry" />
        </mxCell>
        <mxCell id="kfsKnqZZ0kBtD0sSIxjU-77" value="" style="shape=table;startSize=0;container=1;collapsible=0;childLayout=tableLayout;labelBackgroundColor=none;fillColor=#F2CC8F;strokeColor=#E07A5F;fontColor=#393C56;" vertex="1" parent="1">
          <mxGeometry x="1220" y="142" width="200" height="40" as="geometry" />
        </mxCell>
        <mxCell id="kfsKnqZZ0kBtD0sSIxjU-78" value="" style="shape=tableRow;horizontal=0;startSize=0;swimlaneHead=0;swimlaneBody=0;strokeColor=#E07A5F;top=0;left=0;bottom=0;right=0;collapsible=0;dropTarget=0;fillColor=none;points=[[0,0.5],[1,0.5]];portConstraint=eastwest;labelBackgroundColor=none;fontColor=#393C56;" vertex="1" parent="kfsKnqZZ0kBtD0sSIxjU-77">
          <mxGeometry width="200" height="40" as="geometry" />
        </mxCell>
        <mxCell id="kfsKnqZZ0kBtD0sSIxjU-79" value="&lt;u&gt;User_ID&lt;/u&gt;" style="shape=partialRectangle;html=1;whiteSpace=wrap;connectable=0;strokeColor=#E07A5F;overflow=hidden;fillColor=none;top=0;left=0;bottom=0;right=0;pointerEvents=1;labelBackgroundColor=none;fontColor=#393C56;" vertex="1" parent="kfsKnqZZ0kBtD0sSIxjU-78">
          <mxGeometry width="67" height="40" as="geometry">
            <mxRectangle width="67" height="40" as="alternateBounds" />
          </mxGeometry>
        </mxCell>
        <mxCell id="kfsKnqZZ0kBtD0sSIxjU-80" value="Password" style="shape=partialRectangle;html=1;whiteSpace=wrap;connectable=0;strokeColor=#E07A5F;overflow=hidden;fillColor=none;top=0;left=0;bottom=0;right=0;pointerEvents=1;labelBackgroundColor=none;fontColor=#393C56;" vertex="1" parent="kfsKnqZZ0kBtD0sSIxjU-78">
          <mxGeometry x="67" width="66" height="40" as="geometry">
            <mxRectangle width="66" height="40" as="alternateBounds" />
          </mxGeometry>
        </mxCell>
        <mxCell id="kfsKnqZZ0kBtD0sSIxjU-81" value="OTP Verificarion" style="shape=partialRectangle;html=1;whiteSpace=wrap;connectable=0;strokeColor=#E07A5F;overflow=hidden;fillColor=none;top=0;left=0;bottom=0;right=0;pointerEvents=1;labelBackgroundColor=none;fontColor=#393C56;" vertex="1" parent="kfsKnqZZ0kBtD0sSIxjU-78">
          <mxGeometry x="133" width="67" height="40" as="geometry">
            <mxRectangle width="67" height="40" as="alternateBounds" />
          </mxGeometry>
        </mxCell>
        <mxCell id="kfsKnqZZ0kBtD0sSIxjU-82" value="&lt;font style=&quot;font-size: 16px;&quot;&gt;Authentication&lt;/font&gt;" style="text;html=1;align=center;verticalAlign=middle;resizable=0;points=[];autosize=1;strokeColor=none;fillColor=none;labelBackgroundColor=none;fontColor=#393C56;" vertex="1" parent="1">
          <mxGeometry x="1250" y="110" width="120" height="30" as="geometry" />
        </mxCell>
        <mxCell id="kfsKnqZZ0kBtD0sSIxjU-87" value="" style="shape=table;startSize=0;container=1;collapsible=0;childLayout=tableLayout;labelBackgroundColor=none;fillColor=#F2CC8F;strokeColor=#E07A5F;fontColor=#393C56;" vertex="1" parent="1">
          <mxGeometry x="650" y="360" width="762" height="30" as="geometry" />
        </mxCell>
        <mxCell id="kfsKnqZZ0kBtD0sSIxjU-88" value="" style="shape=tableRow;horizontal=0;startSize=0;swimlaneHead=0;swimlaneBody=0;strokeColor=#E07A5F;top=0;left=0;bottom=0;right=0;collapsible=0;dropTarget=0;fillColor=none;points=[[0,0.5],[1,0.5]];portConstraint=eastwest;labelBackgroundColor=none;fontColor=#393C56;" vertex="1" parent="kfsKnqZZ0kBtD0sSIxjU-87">
          <mxGeometry width="762" height="30" as="geometry" />
        </mxCell>
        <mxCell id="kfsKnqZZ0kBtD0sSIxjU-90" value="&lt;u&gt;Mem_ID&lt;/u&gt;" style="shape=partialRectangle;html=1;whiteSpace=wrap;connectable=0;strokeColor=#E07A5F;overflow=hidden;fillColor=none;top=0;left=0;bottom=0;right=0;pointerEvents=1;labelBackgroundColor=none;fontColor=#393C56;" vertex="1" parent="kfsKnqZZ0kBtD0sSIxjU-88">
          <mxGeometry width="102" height="30" as="geometry">
            <mxRectangle width="102" height="30" as="alternateBounds" />
          </mxGeometry>
        </mxCell>
        <mxCell id="kfsKnqZZ0kBtD0sSIxjU-91" value="Password" style="shape=partialRectangle;html=1;whiteSpace=wrap;connectable=0;strokeColor=#E07A5F;overflow=hidden;fillColor=none;top=0;left=0;bottom=0;right=0;pointerEvents=1;labelBackgroundColor=none;fontColor=#393C56;" vertex="1" parent="kfsKnqZZ0kBtD0sSIxjU-88">
          <mxGeometry x="102" width="115" height="30" as="geometry">
            <mxRectangle width="115" height="30" as="alternateBounds" />
          </mxGeometry>
        </mxCell>
        <mxCell id="kfsKnqZZ0kBtD0sSIxjU-92" value="No. of books" style="shape=partialRectangle;html=1;whiteSpace=wrap;connectable=0;strokeColor=#E07A5F;overflow=hidden;fillColor=none;top=0;left=0;bottom=0;right=0;pointerEvents=1;labelBackgroundColor=none;fontColor=#393C56;" vertex="1" parent="kfsKnqZZ0kBtD0sSIxjU-88">
          <mxGeometry x="217" width="109" height="30" as="geometry">
            <mxRectangle width="109" height="30" as="alternateBounds" />
          </mxGeometry>
        </mxCell>
        <mxCell id="kfsKnqZZ0kBtD0sSIxjU-94" value="Total Fine" style="shape=partialRectangle;html=1;whiteSpace=wrap;connectable=0;strokeColor=#E07A5F;overflow=hidden;fillColor=none;top=0;left=0;bottom=0;right=0;pointerEvents=1;labelBackgroundColor=none;fontColor=#393C56;" vertex="1" parent="kfsKnqZZ0kBtD0sSIxjU-88">
          <mxGeometry x="326" width="109" height="30" as="geometry">
            <mxRectangle width="109" height="30" as="alternateBounds" />
          </mxGeometry>
        </mxCell>
        <mxCell id="kfsKnqZZ0kBtD0sSIxjU-95" value="&lt;u&gt;Student_ID&lt;/u&gt;" style="shape=partialRectangle;html=1;whiteSpace=wrap;connectable=0;strokeColor=#E07A5F;overflow=hidden;fillColor=none;top=0;left=0;bottom=0;right=0;pointerEvents=1;labelBackgroundColor=none;fontColor=#393C56;" vertex="1" parent="kfsKnqZZ0kBtD0sSIxjU-88">
          <mxGeometry x="435" width="110" height="30" as="geometry">
            <mxRectangle width="110" height="30" as="alternateBounds" />
          </mxGeometry>
        </mxCell>
        <mxCell id="kfsKnqZZ0kBtD0sSIxjU-96" value="Admin_username" style="shape=partialRectangle;html=1;whiteSpace=wrap;connectable=0;strokeColor=#E07A5F;overflow=hidden;fillColor=none;top=0;left=0;bottom=0;right=0;pointerEvents=1;labelBackgroundColor=none;fontColor=#393C56;" vertex="1" parent="kfsKnqZZ0kBtD0sSIxjU-88">
          <mxGeometry x="545" width="107" height="30" as="geometry">
            <mxRectangle width="107" height="30" as="alternateBounds" />
          </mxGeometry>
        </mxCell>
        <mxCell id="kfsKnqZZ0kBtD0sSIxjU-97" value="User_ID" style="shape=partialRectangle;html=1;whiteSpace=wrap;connectable=0;strokeColor=#E07A5F;overflow=hidden;fillColor=none;top=0;left=0;bottom=0;right=0;pointerEvents=1;labelBackgroundColor=none;fontColor=#393C56;" vertex="1" parent="kfsKnqZZ0kBtD0sSIxjU-88">
          <mxGeometry x="652" width="110" height="30" as="geometry">
            <mxRectangle width="110" height="30" as="alternateBounds" />
          </mxGeometry>
        </mxCell>
        <mxCell id="kfsKnqZZ0kBtD0sSIxjU-98" value="&lt;font style=&quot;font-size: 16px;&quot;&gt;Member&lt;/font&gt;" style="text;html=1;align=center;verticalAlign=middle;resizable=0;points=[];autosize=1;strokeColor=none;fillColor=none;labelBackgroundColor=none;fontColor=#393C56;" vertex="1" parent="1">
          <mxGeometry x="1030" y="330" width="80" height="30" as="geometry" />
        </mxCell>
        <mxCell id="kfsKnqZZ0kBtD0sSIxjU-107" value="" style="shape=table;startSize=0;container=1;collapsible=0;childLayout=tableLayout;labelBackgroundColor=none;fillColor=#F2CC8F;strokeColor=#E07A5F;fontColor=#393C56;" vertex="1" parent="1">
          <mxGeometry x="720" y="550" width="360" height="40" as="geometry" />
        </mxCell>
        <mxCell id="kfsKnqZZ0kBtD0sSIxjU-108" value="" style="shape=tableRow;horizontal=0;startSize=0;swimlaneHead=0;swimlaneBody=0;strokeColor=#E07A5F;top=0;left=0;bottom=0;right=0;collapsible=0;dropTarget=0;fillColor=none;points=[[0,0.5],[1,0.5]];portConstraint=eastwest;labelBackgroundColor=none;fontColor=#393C56;" vertex="1" parent="kfsKnqZZ0kBtD0sSIxjU-107">
          <mxGeometry width="360" height="40" as="geometry" />
        </mxCell>
        <mxCell id="kfsKnqZZ0kBtD0sSIxjU-109" value="&lt;u&gt;ID_No.&lt;/u&gt;" style="shape=partialRectangle;html=1;whiteSpace=wrap;connectable=0;strokeColor=#E07A5F;overflow=hidden;fillColor=none;top=0;left=0;bottom=0;right=0;pointerEvents=1;labelBackgroundColor=none;fontColor=#393C56;" vertex="1" parent="kfsKnqZZ0kBtD0sSIxjU-108">
          <mxGeometry width="60" height="40" as="geometry">
            <mxRectangle width="60" height="40" as="alternateBounds" />
          </mxGeometry>
        </mxCell>
        <mxCell id="kfsKnqZZ0kBtD0sSIxjU-110" value="Email" style="shape=partialRectangle;html=1;whiteSpace=wrap;connectable=0;strokeColor=#E07A5F;overflow=hidden;fillColor=none;top=0;left=0;bottom=0;right=0;pointerEvents=1;labelBackgroundColor=none;fontColor=#393C56;" vertex="1" parent="kfsKnqZZ0kBtD0sSIxjU-108">
          <mxGeometry x="60" width="60" height="40" as="geometry">
            <mxRectangle width="60" height="40" as="alternateBounds" />
          </mxGeometry>
        </mxCell>
        <mxCell id="kfsKnqZZ0kBtD0sSIxjU-111" value="Phone" style="shape=partialRectangle;html=1;whiteSpace=wrap;connectable=0;strokeColor=#E07A5F;overflow=hidden;fillColor=none;top=0;left=0;bottom=0;right=0;pointerEvents=1;labelBackgroundColor=none;fontColor=#393C56;" vertex="1" parent="kfsKnqZZ0kBtD0sSIxjU-108">
          <mxGeometry x="120" width="60" height="40" as="geometry">
            <mxRectangle width="60" height="40" as="alternateBounds" />
          </mxGeometry>
        </mxCell>
        <mxCell id="kfsKnqZZ0kBtD0sSIxjU-112" value="F_name" style="shape=partialRectangle;html=1;whiteSpace=wrap;connectable=0;strokeColor=#E07A5F;overflow=hidden;fillColor=none;top=0;left=0;bottom=0;right=0;pointerEvents=1;labelBackgroundColor=none;fontColor=#393C56;" vertex="1" parent="kfsKnqZZ0kBtD0sSIxjU-108">
          <mxGeometry x="180" width="60" height="40" as="geometry">
            <mxRectangle width="60" height="40" as="alternateBounds" />
          </mxGeometry>
        </mxCell>
        <mxCell id="kfsKnqZZ0kBtD0sSIxjU-113" value="M_name" style="shape=partialRectangle;html=1;whiteSpace=wrap;connectable=0;strokeColor=#E07A5F;overflow=hidden;fillColor=none;top=0;left=0;bottom=0;right=0;pointerEvents=1;labelBackgroundColor=none;fontColor=#393C56;" vertex="1" parent="kfsKnqZZ0kBtD0sSIxjU-108">
          <mxGeometry x="240" width="60" height="40" as="geometry">
            <mxRectangle width="60" height="40" as="alternateBounds" />
          </mxGeometry>
        </mxCell>
        <mxCell id="kfsKnqZZ0kBtD0sSIxjU-114" value="L_name" style="shape=partialRectangle;html=1;whiteSpace=wrap;connectable=0;strokeColor=#E07A5F;overflow=hidden;fillColor=none;top=0;left=0;bottom=0;right=0;pointerEvents=1;labelBackgroundColor=none;fontColor=#393C56;" vertex="1" parent="kfsKnqZZ0kBtD0sSIxjU-108">
          <mxGeometry x="300" width="60" height="40" as="geometry">
            <mxRectangle width="60" height="40" as="alternateBounds" />
          </mxGeometry>
        </mxCell>
        <mxCell id="kfsKnqZZ0kBtD0sSIxjU-115" value="&lt;font style=&quot;font-size: 16px;&quot;&gt;Student&lt;/font&gt;" style="text;html=1;align=center;verticalAlign=middle;resizable=0;points=[];autosize=1;strokeColor=none;fillColor=none;labelBackgroundColor=none;fontColor=#393C56;" vertex="1" parent="1">
          <mxGeometry x="860" y="520" width="80" height="30" as="geometry" />
        </mxCell>
        <mxCell id="kfsKnqZZ0kBtD0sSIxjU-120" value="" style="shape=table;startSize=0;container=1;collapsible=0;childLayout=tableLayout;labelBackgroundColor=none;fillColor=#F2CC8F;strokeColor=#E07A5F;fontColor=#393C56;" vertex="1" parent="1">
          <mxGeometry x="1430" y="515" width="240" height="40" as="geometry" />
        </mxCell>
        <mxCell id="kfsKnqZZ0kBtD0sSIxjU-121" value="" style="shape=tableRow;horizontal=0;startSize=0;swimlaneHead=0;swimlaneBody=0;strokeColor=#E07A5F;top=0;left=0;bottom=0;right=0;collapsible=0;dropTarget=0;fillColor=none;points=[[0,0.5],[1,0.5]];portConstraint=eastwest;labelBackgroundColor=none;fontColor=#393C56;" vertex="1" parent="kfsKnqZZ0kBtD0sSIxjU-120">
          <mxGeometry width="240" height="40" as="geometry" />
        </mxCell>
        <mxCell id="kfsKnqZZ0kBtD0sSIxjU-122" value="&lt;u&gt;Mem_ID&lt;/u&gt;" style="shape=partialRectangle;html=1;whiteSpace=wrap;connectable=0;strokeColor=#E07A5F;overflow=hidden;fillColor=none;top=0;left=0;bottom=0;right=0;pointerEvents=1;labelBackgroundColor=none;fontColor=#393C56;" vertex="1" parent="kfsKnqZZ0kBtD0sSIxjU-121">
          <mxGeometry width="130" height="40" as="geometry">
            <mxRectangle width="130" height="40" as="alternateBounds" />
          </mxGeometry>
        </mxCell>
        <mxCell id="kfsKnqZZ0kBtD0sSIxjU-124" value="Book_ID" style="shape=partialRectangle;html=1;whiteSpace=wrap;connectable=0;strokeColor=#E07A5F;overflow=hidden;fillColor=none;top=0;left=0;bottom=0;right=0;pointerEvents=1;labelBackgroundColor=none;fontColor=#393C56;" vertex="1" parent="kfsKnqZZ0kBtD0sSIxjU-121">
          <mxGeometry x="130" width="110" height="40" as="geometry">
            <mxRectangle width="110" height="40" as="alternateBounds" />
          </mxGeometry>
        </mxCell>
        <mxCell id="kfsKnqZZ0kBtD0sSIxjU-125" value="&lt;font style=&quot;font-size: 16px;&quot;&gt;Borrowed&lt;/font&gt;" style="text;html=1;align=center;verticalAlign=middle;resizable=0;points=[];autosize=1;strokeColor=none;fillColor=none;labelBackgroundColor=none;fontColor=#393C56;" vertex="1" parent="1">
          <mxGeometry x="1470" y="485" width="90" height="30" as="geometry" />
        </mxCell>
        <mxCell id="kfsKnqZZ0kBtD0sSIxjU-133" value="" style="shape=table;startSize=0;container=1;collapsible=0;childLayout=tableLayout;labelBackgroundColor=none;fillColor=#F2CC8F;strokeColor=#E07A5F;fontColor=#393C56;" vertex="1" parent="1">
          <mxGeometry x="630" y="660" width="430" height="40" as="geometry" />
        </mxCell>
        <mxCell id="kfsKnqZZ0kBtD0sSIxjU-134" value="" style="shape=tableRow;horizontal=0;startSize=0;swimlaneHead=0;swimlaneBody=0;strokeColor=#E07A5F;top=0;left=0;bottom=0;right=0;collapsible=0;dropTarget=0;fillColor=none;points=[[0,0.5],[1,0.5]];portConstraint=eastwest;labelBackgroundColor=none;fontColor=#393C56;" vertex="1" parent="kfsKnqZZ0kBtD0sSIxjU-133">
          <mxGeometry width="430" height="40" as="geometry" />
        </mxCell>
        <mxCell id="kfsKnqZZ0kBtD0sSIxjU-135" value="&lt;u&gt;Transaction_ID&lt;/u&gt;" style="shape=partialRectangle;html=1;whiteSpace=wrap;connectable=0;strokeColor=#E07A5F;overflow=hidden;fillColor=none;top=0;left=0;bottom=0;right=0;pointerEvents=1;labelBackgroundColor=none;fontColor=#393C56;" vertex="1" parent="kfsKnqZZ0kBtD0sSIxjU-134">
          <mxGeometry width="143" height="40" as="geometry">
            <mxRectangle width="143" height="40" as="alternateBounds" />
          </mxGeometry>
        </mxCell>
        <mxCell id="kfsKnqZZ0kBtD0sSIxjU-136" value="Payment_status" style="shape=partialRectangle;html=1;whiteSpace=wrap;connectable=0;strokeColor=#E07A5F;overflow=hidden;fillColor=none;top=0;left=0;bottom=0;right=0;pointerEvents=1;labelBackgroundColor=none;fontColor=#393C56;" vertex="1" parent="kfsKnqZZ0kBtD0sSIxjU-134">
          <mxGeometry x="143" width="144" height="40" as="geometry">
            <mxRectangle width="144" height="40" as="alternateBounds" />
          </mxGeometry>
        </mxCell>
        <mxCell id="qssrH7kktoZN2uRVGfyT-4" value="Std_ID" style="shape=partialRectangle;html=1;whiteSpace=wrap;connectable=0;strokeColor=#E07A5F;overflow=hidden;fillColor=none;top=0;left=0;bottom=0;right=0;pointerEvents=1;labelBackgroundColor=none;fontColor=#393C56;" vertex="1" parent="kfsKnqZZ0kBtD0sSIxjU-134">
          <mxGeometry x="287" width="143" height="40" as="geometry">
            <mxRectangle width="143" height="40" as="alternateBounds" />
          </mxGeometry>
        </mxCell>
        <mxCell id="kfsKnqZZ0kBtD0sSIxjU-137" value="&lt;font style=&quot;font-size: 16px;&quot;&gt;Payment&lt;/font&gt;" style="text;html=1;align=center;verticalAlign=middle;resizable=0;points=[];autosize=1;strokeColor=none;fillColor=none;labelBackgroundColor=none;fontColor=#393C56;" vertex="1" parent="1">
          <mxGeometry x="740" y="630" width="90" height="30" as="geometry" />
        </mxCell>
        <mxCell id="kfsKnqZZ0kBtD0sSIxjU-138" value="" style="shape=table;startSize=0;container=1;collapsible=0;childLayout=tableLayout;labelBackgroundColor=none;fillColor=#F2CC8F;strokeColor=#E07A5F;fontColor=#393C56;" vertex="1" parent="1">
          <mxGeometry x="1050" y="740" width="400" height="40" as="geometry" />
        </mxCell>
        <mxCell id="kfsKnqZZ0kBtD0sSIxjU-139" value="" style="shape=tableRow;horizontal=0;startSize=0;swimlaneHead=0;swimlaneBody=0;strokeColor=#E07A5F;top=0;left=0;bottom=0;right=0;collapsible=0;dropTarget=0;fillColor=none;points=[[0,0.5],[1,0.5]];portConstraint=eastwest;labelBackgroundColor=none;fontColor=#393C56;" vertex="1" parent="kfsKnqZZ0kBtD0sSIxjU-138">
          <mxGeometry width="400" height="40" as="geometry" />
        </mxCell>
        <mxCell id="kfsKnqZZ0kBtD0sSIxjU-140" value="&lt;u&gt;Student_ID&lt;/u&gt;" style="shape=partialRectangle;html=1;whiteSpace=wrap;connectable=0;strokeColor=#E07A5F;overflow=hidden;fillColor=none;top=0;left=0;bottom=0;right=0;pointerEvents=1;labelBackgroundColor=none;fontColor=#393C56;" vertex="1" parent="kfsKnqZZ0kBtD0sSIxjU-139">
          <mxGeometry width="140" height="40" as="geometry">
            <mxRectangle width="140" height="40" as="alternateBounds" />
          </mxGeometry>
        </mxCell>
        <mxCell id="kfsKnqZZ0kBtD0sSIxjU-141" value="&lt;u&gt;Member_ID&lt;/u&gt;" style="shape=partialRectangle;html=1;whiteSpace=wrap;connectable=0;strokeColor=#E07A5F;overflow=hidden;fillColor=none;top=0;left=0;bottom=0;right=0;pointerEvents=1;labelBackgroundColor=none;fontColor=#393C56;" vertex="1" parent="kfsKnqZZ0kBtD0sSIxjU-139">
          <mxGeometry x="140" width="127" height="40" as="geometry">
            <mxRectangle width="127" height="40" as="alternateBounds" />
          </mxGeometry>
        </mxCell>
        <mxCell id="kfsKnqZZ0kBtD0sSIxjU-142" value="&lt;u&gt;Transaction_ID&lt;/u&gt;" style="shape=partialRectangle;html=1;whiteSpace=wrap;connectable=0;strokeColor=#E07A5F;overflow=hidden;fillColor=none;top=0;left=0;bottom=0;right=0;pointerEvents=1;labelBackgroundColor=none;fontColor=#393C56;" vertex="1" parent="kfsKnqZZ0kBtD0sSIxjU-139">
          <mxGeometry x="267" width="133" height="40" as="geometry">
            <mxRectangle width="133" height="40" as="alternateBounds" />
          </mxGeometry>
        </mxCell>
        <mxCell id="kfsKnqZZ0kBtD0sSIxjU-143" value="&lt;font style=&quot;font-size: 16px;&quot;&gt;Student Sign-up&lt;/font&gt;" style="text;html=1;align=center;verticalAlign=middle;resizable=0;points=[];autosize=1;strokeColor=none;fillColor=none;labelBackgroundColor=none;fontColor=#393C56;" vertex="1" parent="1">
          <mxGeometry x="1280" y="710" width="140" height="30" as="geometry" />
        </mxCell>
        <mxCell id="kfsKnqZZ0kBtD0sSIxjU-155" value="" style="shape=table;startSize=0;container=1;collapsible=0;childLayout=tableLayout;labelBackgroundColor=none;fillColor=#F2CC8F;strokeColor=#E07A5F;fontColor=#393C56;" vertex="1" parent="1">
          <mxGeometry x="480" y="930" width="1374" height="50" as="geometry" />
        </mxCell>
        <mxCell id="kfsKnqZZ0kBtD0sSIxjU-156" value="" style="shape=tableRow;horizontal=0;startSize=0;swimlaneHead=0;swimlaneBody=0;strokeColor=#E07A5F;top=0;left=0;bottom=0;right=0;collapsible=0;dropTarget=0;fillColor=none;points=[[0,0.5],[1,0.5]];portConstraint=eastwest;labelBackgroundColor=none;fontColor=#393C56;" vertex="1" parent="kfsKnqZZ0kBtD0sSIxjU-155">
          <mxGeometry width="1374" height="50" as="geometry" />
        </mxCell>
        <mxCell id="qssrH7kktoZN2uRVGfyT-5" value="&lt;u&gt;Book_ID&lt;/u&gt;" style="shape=partialRectangle;html=1;whiteSpace=wrap;connectable=0;strokeColor=#E07A5F;overflow=hidden;fillColor=none;top=0;left=0;bottom=0;right=0;pointerEvents=1;labelBackgroundColor=none;fontColor=#393C56;" vertex="1" parent="kfsKnqZZ0kBtD0sSIxjU-156">
          <mxGeometry width="98" height="50" as="geometry">
            <mxRectangle width="98" height="50" as="alternateBounds" />
          </mxGeometry>
        </mxCell>
        <mxCell id="kfsKnqZZ0kBtD0sSIxjU-157" value="&lt;u&gt;ISBN&lt;/u&gt;" style="shape=partialRectangle;html=1;whiteSpace=wrap;connectable=0;strokeColor=#E07A5F;overflow=hidden;fillColor=none;top=0;left=0;bottom=0;right=0;pointerEvents=1;labelBackgroundColor=none;fontColor=#393C56;" vertex="1" parent="kfsKnqZZ0kBtD0sSIxjU-156">
          <mxGeometry x="98" width="98" height="50" as="geometry">
            <mxRectangle width="98" height="50" as="alternateBounds" />
          </mxGeometry>
        </mxCell>
        <mxCell id="kfsKnqZZ0kBtD0sSIxjU-158" value="&lt;u&gt;Title&lt;/u&gt;" style="shape=partialRectangle;html=1;whiteSpace=wrap;connectable=0;strokeColor=#E07A5F;overflow=hidden;fillColor=none;top=0;left=0;bottom=0;right=0;pointerEvents=1;labelBackgroundColor=none;fontColor=#393C56;" vertex="1" parent="kfsKnqZZ0kBtD0sSIxjU-156">
          <mxGeometry x="196" width="98" height="50" as="geometry">
            <mxRectangle width="98" height="50" as="alternateBounds" />
          </mxGeometry>
        </mxCell>
        <mxCell id="kfsKnqZZ0kBtD0sSIxjU-159" value="Author" style="shape=partialRectangle;html=1;whiteSpace=wrap;connectable=0;strokeColor=#E07A5F;overflow=hidden;fillColor=none;top=0;left=0;bottom=0;right=0;pointerEvents=1;labelBackgroundColor=none;fontColor=#393C56;" vertex="1" parent="kfsKnqZZ0kBtD0sSIxjU-156">
          <mxGeometry x="294" width="99" height="50" as="geometry">
            <mxRectangle width="99" height="50" as="alternateBounds" />
          </mxGeometry>
        </mxCell>
        <mxCell id="kfsKnqZZ0kBtD0sSIxjU-160" value="Edition" style="shape=partialRectangle;html=1;whiteSpace=wrap;connectable=0;strokeColor=#E07A5F;overflow=hidden;fillColor=none;top=0;left=0;bottom=0;right=0;pointerEvents=1;labelBackgroundColor=none;fontColor=#393C56;" vertex="1" parent="kfsKnqZZ0kBtD0sSIxjU-156">
          <mxGeometry x="393" width="99" height="50" as="geometry">
            <mxRectangle width="99" height="50" as="alternateBounds" />
          </mxGeometry>
        </mxCell>
        <mxCell id="kfsKnqZZ0kBtD0sSIxjU-161" value="Genre" style="shape=partialRectangle;html=1;whiteSpace=wrap;connectable=0;strokeColor=#E07A5F;overflow=hidden;fillColor=none;top=0;left=0;bottom=0;right=0;pointerEvents=1;labelBackgroundColor=none;fontColor=#393C56;" vertex="1" parent="kfsKnqZZ0kBtD0sSIxjU-156">
          <mxGeometry x="492" width="97" height="50" as="geometry">
            <mxRectangle width="97" height="50" as="alternateBounds" />
          </mxGeometry>
        </mxCell>
        <mxCell id="kfsKnqZZ0kBtD0sSIxjU-162" value="Fine" style="shape=partialRectangle;html=1;whiteSpace=wrap;connectable=0;strokeColor=#E07A5F;overflow=hidden;fillColor=none;top=0;left=0;bottom=0;right=0;pointerEvents=1;labelBackgroundColor=none;fontColor=#393C56;" vertex="1" parent="kfsKnqZZ0kBtD0sSIxjU-156">
          <mxGeometry x="589" width="98" height="50" as="geometry">
            <mxRectangle width="98" height="50" as="alternateBounds" />
          </mxGeometry>
        </mxCell>
        <mxCell id="kfsKnqZZ0kBtD0sSIxjU-163" value="Publisher_ID" style="shape=partialRectangle;html=1;whiteSpace=wrap;connectable=0;strokeColor=#E07A5F;overflow=hidden;fillColor=none;top=0;left=0;bottom=0;right=0;pointerEvents=1;labelBackgroundColor=none;fontColor=#393C56;" vertex="1" parent="kfsKnqZZ0kBtD0sSIxjU-156">
          <mxGeometry x="687" width="97" height="50" as="geometry">
            <mxRectangle width="97" height="50" as="alternateBounds" />
          </mxGeometry>
        </mxCell>
        <mxCell id="kfsKnqZZ0kBtD0sSIxjU-164" value="Admin_User" style="shape=partialRectangle;html=1;whiteSpace=wrap;connectable=0;strokeColor=#E07A5F;overflow=hidden;fillColor=none;top=0;left=0;bottom=0;right=0;pointerEvents=1;labelBackgroundColor=none;fontColor=#393C56;" vertex="1" parent="kfsKnqZZ0kBtD0sSIxjU-156">
          <mxGeometry x="784" width="99" height="50" as="geometry">
            <mxRectangle width="99" height="50" as="alternateBounds" />
          </mxGeometry>
        </mxCell>
        <mxCell id="kfsKnqZZ0kBtD0sSIxjU-165" value="Mem_ID" style="shape=partialRectangle;html=1;whiteSpace=wrap;connectable=0;strokeColor=#E07A5F;overflow=hidden;fillColor=none;top=0;left=0;bottom=0;right=0;pointerEvents=1;labelBackgroundColor=none;fontColor=#393C56;" vertex="1" parent="kfsKnqZZ0kBtD0sSIxjU-156">
          <mxGeometry x="883" width="99" height="50" as="geometry">
            <mxRectangle width="99" height="50" as="alternateBounds" />
          </mxGeometry>
        </mxCell>
        <mxCell id="kfsKnqZZ0kBtD0sSIxjU-167" value="Issue_Date" style="shape=partialRectangle;html=1;whiteSpace=wrap;connectable=0;strokeColor=#E07A5F;overflow=hidden;fillColor=none;top=0;left=0;bottom=0;right=0;pointerEvents=1;labelBackgroundColor=none;fontColor=#393C56;" vertex="1" parent="kfsKnqZZ0kBtD0sSIxjU-156">
          <mxGeometry x="982" width="98" height="50" as="geometry">
            <mxRectangle width="98" height="50" as="alternateBounds" />
          </mxGeometry>
        </mxCell>
        <mxCell id="kfsKnqZZ0kBtD0sSIxjU-169" value="Return_date" style="shape=partialRectangle;html=1;whiteSpace=wrap;connectable=0;strokeColor=#E07A5F;overflow=hidden;fillColor=none;top=0;left=0;bottom=0;right=0;pointerEvents=1;labelBackgroundColor=none;fontColor=#393C56;" vertex="1" parent="kfsKnqZZ0kBtD0sSIxjU-156">
          <mxGeometry x="1080" width="98" height="50" as="geometry">
            <mxRectangle width="98" height="50" as="alternateBounds" />
          </mxGeometry>
        </mxCell>
        <mxCell id="qssrH7kktoZN2uRVGfyT-6" value="Description" style="shape=partialRectangle;html=1;whiteSpace=wrap;connectable=0;strokeColor=#E07A5F;overflow=hidden;fillColor=none;top=0;left=0;bottom=0;right=0;pointerEvents=1;labelBackgroundColor=none;fontColor=#393C56;" vertex="1" parent="kfsKnqZZ0kBtD0sSIxjU-156">
          <mxGeometry x="1178" width="98" height="50" as="geometry">
            <mxRectangle width="98" height="50" as="alternateBounds" />
          </mxGeometry>
        </mxCell>
        <mxCell id="qssrH7kktoZN2uRVGfyT-7" value="Entry Date" style="shape=partialRectangle;html=1;whiteSpace=wrap;connectable=0;strokeColor=#E07A5F;overflow=hidden;fillColor=none;top=0;left=0;bottom=0;right=0;pointerEvents=1;labelBackgroundColor=none;fontColor=#393C56;" vertex="1" parent="kfsKnqZZ0kBtD0sSIxjU-156">
          <mxGeometry x="1276" width="98" height="50" as="geometry">
            <mxRectangle width="98" height="50" as="alternateBounds" />
          </mxGeometry>
        </mxCell>
        <mxCell id="kfsKnqZZ0kBtD0sSIxjU-170" value="" style="shape=table;startSize=0;container=1;collapsible=0;childLayout=tableLayout;labelBackgroundColor=none;fillColor=#F2CC8F;strokeColor=#E07A5F;fontColor=#393C56;" vertex="1" parent="1">
          <mxGeometry x="750" y="1100" width="330" height="40" as="geometry" />
        </mxCell>
        <mxCell id="kfsKnqZZ0kBtD0sSIxjU-171" value="" style="shape=tableRow;horizontal=0;startSize=0;swimlaneHead=0;swimlaneBody=0;strokeColor=#E07A5F;top=0;left=0;bottom=0;right=0;collapsible=0;dropTarget=0;fillColor=none;points=[[0,0.5],[1,0.5]];portConstraint=eastwest;labelBackgroundColor=none;fontColor=#393C56;" vertex="1" parent="kfsKnqZZ0kBtD0sSIxjU-170">
          <mxGeometry width="330" height="40" as="geometry" />
        </mxCell>
        <mxCell id="kfsKnqZZ0kBtD0sSIxjU-172" value="&lt;u&gt;Publisher_ID&lt;/u&gt;" style="shape=partialRectangle;html=1;whiteSpace=wrap;connectable=0;strokeColor=#E07A5F;overflow=hidden;fillColor=none;top=0;left=0;bottom=0;right=0;pointerEvents=1;labelBackgroundColor=none;fontColor=#393C56;" vertex="1" parent="kfsKnqZZ0kBtD0sSIxjU-171">
          <mxGeometry width="180" height="40" as="geometry">
            <mxRectangle width="180" height="40" as="alternateBounds" />
          </mxGeometry>
        </mxCell>
        <mxCell id="kfsKnqZZ0kBtD0sSIxjU-174" value="Name" style="shape=partialRectangle;html=1;whiteSpace=wrap;connectable=0;strokeColor=#E07A5F;overflow=hidden;fillColor=none;top=0;left=0;bottom=0;right=0;pointerEvents=1;labelBackgroundColor=none;fontColor=#393C56;" vertex="1" parent="kfsKnqZZ0kBtD0sSIxjU-171">
          <mxGeometry x="180" width="150" height="40" as="geometry">
            <mxRectangle width="150" height="40" as="alternateBounds" />
          </mxGeometry>
        </mxCell>
        <mxCell id="kfsKnqZZ0kBtD0sSIxjU-175" value="&lt;font style=&quot;font-size: 16px;&quot;&gt;Publication&lt;/font&gt;" style="text;html=1;align=center;verticalAlign=middle;resizable=0;points=[];autosize=1;strokeColor=none;fillColor=none;labelBackgroundColor=none;fontColor=#393C56;" vertex="1" parent="1">
          <mxGeometry x="880" y="1070" width="100" height="30" as="geometry" />
        </mxCell>
        <mxCell id="kfsKnqZZ0kBtD0sSIxjU-196" value="" style="shape=table;startSize=0;container=1;collapsible=0;childLayout=tableLayout;labelBackgroundColor=none;fillColor=#F2CC8F;strokeColor=#E07A5F;fontColor=#393C56;" vertex="1" parent="1">
          <mxGeometry x="500" y="1250" width="420" height="40" as="geometry" />
        </mxCell>
        <mxCell id="kfsKnqZZ0kBtD0sSIxjU-197" value="" style="shape=tableRow;horizontal=0;startSize=0;swimlaneHead=0;swimlaneBody=0;strokeColor=#E07A5F;top=0;left=0;bottom=0;right=0;collapsible=0;dropTarget=0;fillColor=none;points=[[0,0.5],[1,0.5]];portConstraint=eastwest;labelBackgroundColor=none;fontColor=#393C56;" vertex="1" parent="kfsKnqZZ0kBtD0sSIxjU-196">
          <mxGeometry width="420" height="40" as="geometry" />
        </mxCell>
        <mxCell id="kfsKnqZZ0kBtD0sSIxjU-198" value="&lt;u&gt;Vendor_code&lt;/u&gt;" style="shape=partialRectangle;html=1;whiteSpace=wrap;connectable=0;strokeColor=#E07A5F;overflow=hidden;fillColor=none;top=0;left=0;bottom=0;right=0;pointerEvents=1;labelBackgroundColor=none;fontColor=#393C56;" vertex="1" parent="kfsKnqZZ0kBtD0sSIxjU-197">
          <mxGeometry width="140" height="40" as="geometry">
            <mxRectangle width="140" height="40" as="alternateBounds" />
          </mxGeometry>
        </mxCell>
        <mxCell id="kfsKnqZZ0kBtD0sSIxjU-199" value="Contact_No." style="shape=partialRectangle;html=1;whiteSpace=wrap;connectable=0;strokeColor=#E07A5F;overflow=hidden;fillColor=none;top=0;left=0;bottom=0;right=0;pointerEvents=1;labelBackgroundColor=none;fontColor=#393C56;" vertex="1" parent="kfsKnqZZ0kBtD0sSIxjU-197">
          <mxGeometry x="140" width="140" height="40" as="geometry">
            <mxRectangle width="140" height="40" as="alternateBounds" />
          </mxGeometry>
        </mxCell>
        <mxCell id="kfsKnqZZ0kBtD0sSIxjU-200" value="Name" style="shape=partialRectangle;html=1;whiteSpace=wrap;connectable=0;strokeColor=#E07A5F;overflow=hidden;fillColor=none;top=0;left=0;bottom=0;right=0;pointerEvents=1;labelBackgroundColor=none;fontColor=#393C56;" vertex="1" parent="kfsKnqZZ0kBtD0sSIxjU-197">
          <mxGeometry x="280" width="140" height="40" as="geometry">
            <mxRectangle width="140" height="40" as="alternateBounds" />
          </mxGeometry>
        </mxCell>
        <mxCell id="kfsKnqZZ0kBtD0sSIxjU-201" value="&lt;font style=&quot;font-size: 16px;&quot;&gt;Vendor&lt;/font&gt;" style="text;html=1;align=center;verticalAlign=middle;resizable=0;points=[];autosize=1;strokeColor=none;fillColor=none;labelBackgroundColor=none;fontColor=#393C56;" vertex="1" parent="1">
          <mxGeometry x="670" y="1220" width="70" height="30" as="geometry" />
        </mxCell>
        <mxCell id="kfsKnqZZ0kBtD0sSIxjU-202" value="" style="shape=table;startSize=0;container=1;collapsible=0;childLayout=tableLayout;labelBackgroundColor=none;fillColor=#F2CC8F;strokeColor=#E07A5F;fontColor=#393C56;" vertex="1" parent="1">
          <mxGeometry x="640" y="1430" width="620" height="40" as="geometry" />
        </mxCell>
        <mxCell id="kfsKnqZZ0kBtD0sSIxjU-203" value="" style="shape=tableRow;horizontal=0;startSize=0;swimlaneHead=0;swimlaneBody=0;strokeColor=#E07A5F;top=0;left=0;bottom=0;right=0;collapsible=0;dropTarget=0;fillColor=none;points=[[0,0.5],[1,0.5]];portConstraint=eastwest;labelBackgroundColor=none;fontColor=#393C56;" vertex="1" parent="kfsKnqZZ0kBtD0sSIxjU-202">
          <mxGeometry width="620" height="40" as="geometry" />
        </mxCell>
        <mxCell id="kfsKnqZZ0kBtD0sSIxjU-204" value="ISBN" style="shape=partialRectangle;html=1;whiteSpace=wrap;connectable=0;strokeColor=#E07A5F;overflow=hidden;fillColor=none;top=0;left=0;bottom=0;right=0;pointerEvents=1;labelBackgroundColor=none;fontColor=#393C56;" vertex="1" parent="kfsKnqZZ0kBtD0sSIxjU-203">
          <mxGeometry width="155" height="40" as="geometry">
            <mxRectangle width="155" height="40" as="alternateBounds" />
          </mxGeometry>
        </mxCell>
        <mxCell id="kfsKnqZZ0kBtD0sSIxjU-205" value="&lt;u&gt;Vendor_code&lt;/u&gt;" style="shape=partialRectangle;html=1;whiteSpace=wrap;connectable=0;strokeColor=#E07A5F;overflow=hidden;fillColor=none;top=0;left=0;bottom=0;right=0;pointerEvents=1;labelBackgroundColor=none;fontColor=#393C56;" vertex="1" parent="kfsKnqZZ0kBtD0sSIxjU-203">
          <mxGeometry x="155" width="155" height="40" as="geometry">
            <mxRectangle width="155" height="40" as="alternateBounds" />
          </mxGeometry>
        </mxCell>
        <mxCell id="qssrH7kktoZN2uRVGfyT-8" value="Book_ID" style="shape=partialRectangle;html=1;whiteSpace=wrap;connectable=0;strokeColor=#E07A5F;overflow=hidden;fillColor=none;top=0;left=0;bottom=0;right=0;pointerEvents=1;labelBackgroundColor=none;fontColor=#393C56;" vertex="1" parent="kfsKnqZZ0kBtD0sSIxjU-203">
          <mxGeometry x="310" width="155" height="40" as="geometry">
            <mxRectangle width="155" height="40" as="alternateBounds" />
          </mxGeometry>
        </mxCell>
        <mxCell id="qssrH7kktoZN2uRVGfyT-9" value="Price" style="shape=partialRectangle;html=1;whiteSpace=wrap;connectable=0;strokeColor=#E07A5F;overflow=hidden;fillColor=none;top=0;left=0;bottom=0;right=0;pointerEvents=1;labelBackgroundColor=none;fontColor=#393C56;" vertex="1" parent="kfsKnqZZ0kBtD0sSIxjU-203">
          <mxGeometry x="465" width="155" height="40" as="geometry">
            <mxRectangle width="155" height="40" as="alternateBounds" />
          </mxGeometry>
        </mxCell>
        <mxCell id="kfsKnqZZ0kBtD0sSIxjU-206" value="&lt;font style=&quot;font-size: 16px;&quot;&gt;Sales&lt;/font&gt;" style="text;html=1;align=center;verticalAlign=middle;resizable=0;points=[];autosize=1;strokeColor=none;fillColor=none;labelBackgroundColor=none;fontColor=#393C56;" vertex="1" parent="1">
          <mxGeometry x="765" y="1400" width="60" height="30" as="geometry" />
        </mxCell>
        <mxCell id="kfsKnqZZ0kBtD0sSIxjU-216" value="" style="shape=table;startSize=0;container=1;collapsible=0;childLayout=tableLayout;labelBackgroundColor=none;fillColor=#F2CC8F;strokeColor=#E07A5F;fontColor=#393C56;" vertex="1" parent="1">
          <mxGeometry x="578" y="1620" width="378" height="40" as="geometry" />
        </mxCell>
        <mxCell id="kfsKnqZZ0kBtD0sSIxjU-217" value="" style="shape=tableRow;horizontal=0;startSize=0;swimlaneHead=0;swimlaneBody=0;strokeColor=#E07A5F;top=0;left=0;bottom=0;right=0;collapsible=0;dropTarget=0;fillColor=none;points=[[0,0.5],[1,0.5]];portConstraint=eastwest;labelBackgroundColor=none;fontColor=#393C56;" vertex="1" parent="kfsKnqZZ0kBtD0sSIxjU-216">
          <mxGeometry width="378" height="40" as="geometry" />
        </mxCell>
        <mxCell id="qssrH7kktoZN2uRVGfyT-10" value="&lt;u&gt;Book_ID&lt;/u&gt;" style="shape=partialRectangle;html=1;whiteSpace=wrap;connectable=0;strokeColor=#E07A5F;overflow=hidden;fillColor=none;top=0;left=0;bottom=0;right=0;pointerEvents=1;labelBackgroundColor=none;fontColor=#393C56;" vertex="1" parent="kfsKnqZZ0kBtD0sSIxjU-217">
          <mxGeometry width="76" height="40" as="geometry">
            <mxRectangle width="76" height="40" as="alternateBounds" />
          </mxGeometry>
        </mxCell>
        <mxCell id="kfsKnqZZ0kBtD0sSIxjU-218" value="&lt;u&gt;ISBN&lt;/u&gt;" style="shape=partialRectangle;html=1;whiteSpace=wrap;connectable=0;strokeColor=#E07A5F;overflow=hidden;fillColor=none;top=0;left=0;bottom=0;right=0;pointerEvents=1;labelBackgroundColor=none;fontColor=#393C56;" vertex="1" parent="kfsKnqZZ0kBtD0sSIxjU-217">
          <mxGeometry x="76" width="76" height="40" as="geometry">
            <mxRectangle width="76" height="40" as="alternateBounds" />
          </mxGeometry>
        </mxCell>
        <mxCell id="kfsKnqZZ0kBtD0sSIxjU-219" value="Status" style="shape=partialRectangle;html=1;whiteSpace=wrap;connectable=0;strokeColor=#E07A5F;overflow=hidden;fillColor=none;top=0;left=0;bottom=0;right=0;pointerEvents=1;labelBackgroundColor=none;fontColor=#393C56;" vertex="1" parent="kfsKnqZZ0kBtD0sSIxjU-217">
          <mxGeometry x="152" width="75" height="40" as="geometry">
            <mxRectangle width="75" height="40" as="alternateBounds" />
          </mxGeometry>
        </mxCell>
        <mxCell id="kfsKnqZZ0kBtD0sSIxjU-220" value="&lt;u&gt;Copy_No.&lt;/u&gt;" style="shape=partialRectangle;html=1;whiteSpace=wrap;connectable=0;strokeColor=#E07A5F;overflow=hidden;fillColor=none;top=0;left=0;bottom=0;right=0;pointerEvents=1;labelBackgroundColor=none;fontColor=#393C56;" vertex="1" parent="kfsKnqZZ0kBtD0sSIxjU-217">
          <mxGeometry x="227" width="76" height="40" as="geometry">
            <mxRectangle width="76" height="40" as="alternateBounds" />
          </mxGeometry>
        </mxCell>
        <mxCell id="kfsKnqZZ0kBtD0sSIxjU-221" value="Location" style="shape=partialRectangle;html=1;whiteSpace=wrap;connectable=0;strokeColor=#E07A5F;overflow=hidden;fillColor=none;top=0;left=0;bottom=0;right=0;pointerEvents=1;labelBackgroundColor=none;fontColor=#393C56;" vertex="1" parent="kfsKnqZZ0kBtD0sSIxjU-217">
          <mxGeometry x="303" width="75" height="40" as="geometry">
            <mxRectangle width="75" height="40" as="alternateBounds" />
          </mxGeometry>
        </mxCell>
        <mxCell id="kfsKnqZZ0kBtD0sSIxjU-222" value="&lt;font style=&quot;font-size: 16px;&quot;&gt;Book Copy&lt;/font&gt;" style="text;html=1;align=center;verticalAlign=middle;resizable=0;points=[];autosize=1;strokeColor=none;fillColor=none;labelBackgroundColor=none;fontColor=#393C56;" vertex="1" parent="1">
          <mxGeometry x="679" y="1590" width="100" height="30" as="geometry" />
        </mxCell>
        <mxCell id="kfsKnqZZ0kBtD0sSIxjU-227" value="&lt;font style=&quot;font-size: 16px;&quot;&gt;Book&lt;/font&gt;" style="text;html=1;align=center;verticalAlign=middle;resizable=0;points=[];autosize=1;strokeColor=none;fillColor=none;labelBackgroundColor=none;fontColor=#393C56;" vertex="1" parent="1">
          <mxGeometry x="840" y="900" width="60" height="30" as="geometry" />
        </mxCell>
        <mxCell id="qvk2EaItQMD5oTvAMzH2-2" value="" style="endArrow=classic;html=1;rounded=0;entryX=0.16;entryY=1;entryDx=0;entryDy=0;entryPerimeter=0;labelBackgroundColor=none;strokeColor=#E07A5F;fontColor=default;" edge="1" parent="1" target="kfsKnqZZ0kBtD0sSIxjU-77">
          <mxGeometry width="50" height="50" relative="1" as="geometry">
            <mxPoint x="780" y="120" as="sourcePoint" />
            <mxPoint x="1120" y="240" as="targetPoint" />
            <Array as="points">
              <mxPoint x="780" y="310" />
              <mxPoint x="1252" y="310" />
            </Array>
          </mxGeometry>
        </mxCell>
        <mxCell id="qvk2EaItQMD5oTvAMzH2-3" value="" style="endArrow=classic;html=1;rounded=0;entryX=0.083;entryY=0;entryDx=0;entryDy=0;entryPerimeter=0;exitX=0.642;exitY=1.1;exitDx=0;exitDy=0;exitPerimeter=0;labelBackgroundColor=none;strokeColor=#E07A5F;fontColor=default;" edge="1" parent="1" source="kfsKnqZZ0kBtD0sSIxjU-87" target="kfsKnqZZ0kBtD0sSIxjU-108">
          <mxGeometry width="50" height="50" relative="1" as="geometry">
            <mxPoint x="880" y="300" as="sourcePoint" />
            <mxPoint x="930" y="250" as="targetPoint" />
            <Array as="points">
              <mxPoint x="1140" y="440" />
              <mxPoint x="750" y="440" />
            </Array>
          </mxGeometry>
        </mxCell>
        <mxCell id="qvk2EaItQMD5oTvAMzH2-5" value="" style="endArrow=classic;html=1;rounded=0;entryX=0.245;entryY=0.975;entryDx=0;entryDy=0;entryPerimeter=0;labelBackgroundColor=none;strokeColor=#E07A5F;fontColor=default;" edge="1" parent="1">
          <mxGeometry width="50" height="50" relative="1" as="geometry">
            <mxPoint x="1351" y="360" as="sourcePoint" />
            <mxPoint x="1269.5" y="182" as="targetPoint" />
            <Array as="points">
              <mxPoint x="1351" y="240" />
              <mxPoint x="1270.5" y="241" />
            </Array>
          </mxGeometry>
        </mxCell>
        <mxCell id="qvk2EaItQMD5oTvAMzH2-6" value="" style="endArrow=classic;html=1;rounded=0;entryX=0.092;entryY=1;entryDx=0;entryDy=0;entryPerimeter=0;exitX=0.167;exitY=0.975;exitDx=0;exitDy=0;exitPerimeter=0;labelBackgroundColor=none;strokeColor=#E07A5F;fontColor=default;" edge="1" parent="1" source="kfsKnqZZ0kBtD0sSIxjU-121" target="kfsKnqZZ0kBtD0sSIxjU-88">
          <mxGeometry width="50" height="50" relative="1" as="geometry">
            <mxPoint x="1430" y="630" as="sourcePoint" />
            <mxPoint x="990" y="490" as="targetPoint" />
            <Array as="points">
              <mxPoint x="1470" y="620" />
              <mxPoint x="1150" y="620" />
              <mxPoint x="1150" y="500" />
              <mxPoint x="720" y="500" />
            </Array>
          </mxGeometry>
        </mxCell>
        <mxCell id="qvk2EaItQMD5oTvAMzH2-7" value="" style="endArrow=classic;html=1;rounded=0;entryX=0.076;entryY=1;entryDx=0;entryDy=0;entryPerimeter=0;exitX=0.909;exitY=-0.025;exitDx=0;exitDy=0;exitPerimeter=0;labelBackgroundColor=none;strokeColor=#E07A5F;fontColor=default;" edge="1" parent="1" source="kfsKnqZZ0kBtD0sSIxjU-134" target="kfsKnqZZ0kBtD0sSIxjU-108">
          <mxGeometry width="50" height="50" relative="1" as="geometry">
            <mxPoint x="830" y="660" as="sourcePoint" />
            <mxPoint x="880" y="610" as="targetPoint" />
            <Array as="points">
              <mxPoint x="1020" y="620" />
              <mxPoint x="749" y="620" />
            </Array>
          </mxGeometry>
        </mxCell>
        <mxCell id="qvk2EaItQMD5oTvAMzH2-8" value="" style="endArrow=classic;html=1;rounded=0;entryX=0.136;entryY=1.05;entryDx=0;entryDy=0;entryPerimeter=0;exitX=0.15;exitY=0;exitDx=0;exitDy=0;exitPerimeter=0;labelBackgroundColor=none;strokeColor=#E07A5F;fontColor=default;" edge="1" parent="1" source="kfsKnqZZ0kBtD0sSIxjU-139" target="kfsKnqZZ0kBtD0sSIxjU-107">
          <mxGeometry width="50" height="50" relative="1" as="geometry">
            <mxPoint x="1110" y="730" as="sourcePoint" />
            <mxPoint x="1000" y="790" as="targetPoint" />
            <Array as="points">
              <mxPoint x="1110" y="610" />
              <mxPoint x="769" y="610" />
            </Array>
          </mxGeometry>
        </mxCell>
        <mxCell id="qvk2EaItQMD5oTvAMzH2-9" value="" style="endArrow=classic;html=1;rounded=0;exitX=0.503;exitY=1.075;exitDx=0;exitDy=0;exitPerimeter=0;labelBackgroundColor=none;strokeColor=#E07A5F;fontColor=default;" edge="1" parent="1" source="kfsKnqZZ0kBtD0sSIxjU-139">
          <mxGeometry width="50" height="50" relative="1" as="geometry">
            <mxPoint x="1030" y="630" as="sourcePoint" />
            <mxPoint x="674" y="390" as="targetPoint" />
            <Array as="points">
              <mxPoint x="1250" y="850" />
              <mxPoint x="550" y="850" />
              <mxPoint x="550" y="500" />
              <mxPoint x="674" y="500" />
            </Array>
          </mxGeometry>
        </mxCell>
        <mxCell id="qvk2EaItQMD5oTvAMzH2-10" value="" style="endArrow=classic;html=1;rounded=0;entryX=0.144;entryY=1.1;entryDx=0;entryDy=0;entryPerimeter=0;exitX=0.918;exitY=1.05;exitDx=0;exitDy=0;exitPerimeter=0;labelBackgroundColor=none;strokeColor=#E07A5F;fontColor=default;" edge="1" parent="1" source="kfsKnqZZ0kBtD0sSIxjU-139" target="kfsKnqZZ0kBtD0sSIxjU-134">
          <mxGeometry width="50" height="50" relative="1" as="geometry">
            <mxPoint x="1200" y="750" as="sourcePoint" />
            <mxPoint x="1250" y="700" as="targetPoint" />
            <Array as="points">
              <mxPoint x="1420" y="880" />
              <mxPoint x="692" y="880" />
            </Array>
          </mxGeometry>
        </mxCell>
        <mxCell id="qvk2EaItQMD5oTvAMzH2-11" value="" style="endArrow=classic;html=1;rounded=0;entryX=0.025;entryY=1.05;entryDx=0;entryDy=0;entryPerimeter=0;exitX=0.603;exitY=1.04;exitDx=0;exitDy=0;exitPerimeter=0;labelBackgroundColor=none;strokeColor=#E07A5F;fontColor=default;" edge="1" parent="1" source="kfsKnqZZ0kBtD0sSIxjU-156" target="kfsKnqZZ0kBtD0sSIxjU-58">
          <mxGeometry width="50" height="50" relative="1" as="geometry">
            <mxPoint x="1060" y="720" as="sourcePoint" />
            <mxPoint x="1110" y="670" as="targetPoint" />
            <Array as="points">
              <mxPoint x="1310" y="1060" />
              <mxPoint x="350" y="1060" />
              <mxPoint x="350" y="190" />
              <mxPoint x="700" y="190" />
            </Array>
          </mxGeometry>
        </mxCell>
        <mxCell id="YydHtBKfeLd-p_gxx6qq-1" value="" style="endArrow=classic;html=1;rounded=0;entryX=0.162;entryY=1.05;entryDx=0;entryDy=0;entryPerimeter=0;labelBackgroundColor=none;strokeColor=#E07A5F;fontColor=default;" edge="1" parent="1" target="kfsKnqZZ0kBtD0sSIxjU-197">
          <mxGeometry width="50" height="50" relative="1" as="geometry">
            <mxPoint x="568" y="1540" as="sourcePoint" />
            <mxPoint x="900" y="1510" as="targetPoint" />
          </mxGeometry>
        </mxCell>
        <mxCell id="YydHtBKfeLd-p_gxx6qq-2" value="" style="endArrow=none;html=1;rounded=0;labelBackgroundColor=none;strokeColor=#E07A5F;fontColor=default;" edge="1" parent="1">
          <mxGeometry width="50" height="50" relative="1" as="geometry">
            <mxPoint x="570" y="1540" as="sourcePoint" />
            <mxPoint x="870" y="1540" as="targetPoint" />
          </mxGeometry>
        </mxCell>
        <mxCell id="YydHtBKfeLd-p_gxx6qq-4" value="" style="endArrow=none;html=1;rounded=0;labelBackgroundColor=none;strokeColor=#E07A5F;fontColor=default;" edge="1" parent="1">
          <mxGeometry width="50" height="50" relative="1" as="geometry">
            <mxPoint x="870" y="1540" as="sourcePoint" />
            <mxPoint x="870" y="1470" as="targetPoint" />
          </mxGeometry>
        </mxCell>
        <mxCell id="qvk2EaItQMD5oTvAMzH2-13" value="" style="endArrow=classic;html=1;rounded=0;entryX=0.288;entryY=1;entryDx=0;entryDy=0;entryPerimeter=0;exitX=0.546;exitY=1;exitDx=0;exitDy=0;exitPerimeter=0;labelBackgroundColor=none;strokeColor=#E07A5F;fontColor=default;" edge="1" parent="1" source="kfsKnqZZ0kBtD0sSIxjU-156" target="kfsKnqZZ0kBtD0sSIxjU-170">
          <mxGeometry width="50" height="50" relative="1" as="geometry">
            <mxPoint x="990" y="1330" as="sourcePoint" />
            <mxPoint x="1040" y="1280" as="targetPoint" />
            <Array as="points">
              <mxPoint x="1230" y="1190" />
              <mxPoint x="845" y="1190" />
            </Array>
          </mxGeometry>
        </mxCell>
        <mxCell id="YydHtBKfeLd-p_gxx6qq-10" value="" style="endArrow=none;html=1;rounded=0;labelBackgroundColor=none;strokeColor=#E07A5F;fontColor=default;" edge="1" parent="1">
          <mxGeometry width="50" height="50" relative="1" as="geometry">
            <mxPoint x="490" y="1580" as="sourcePoint" />
            <mxPoint x="1010" y="1580" as="targetPoint" />
          </mxGeometry>
        </mxCell>
        <mxCell id="ZnbpXOZzZV5SWKvMDRzJ-2" value="" style="endArrow=none;html=1;rounded=0;entryX=0.111;entryY=1;entryDx=0;entryDy=0;entryPerimeter=0;labelBackgroundColor=none;strokeColor=#E07A5F;fontColor=default;" edge="1" parent="1" target="kfsKnqZZ0kBtD0sSIxjU-217">
          <mxGeometry width="50" height="50" relative="1" as="geometry">
            <mxPoint x="380" y="1710" as="sourcePoint" />
            <mxPoint x="640" y="1650" as="targetPoint" />
            <Array as="points">
              <mxPoint x="620" y="1710" />
            </Array>
          </mxGeometry>
        </mxCell>
        <mxCell id="YydHtBKfeLd-p_gxx6qq-11" value="" style="endArrow=none;html=1;rounded=0;labelBackgroundColor=none;strokeColor=#E07A5F;fontColor=default;" edge="1" parent="1">
          <mxGeometry width="50" height="50" relative="1" as="geometry">
            <mxPoint x="1010" y="1580" as="sourcePoint" />
            <mxPoint x="1010" y="1470" as="targetPoint" />
          </mxGeometry>
        </mxCell>
        <mxCell id="ZnbpXOZzZV5SWKvMDRzJ-3" value="" style="endArrow=none;html=1;rounded=0;labelBackgroundColor=none;strokeColor=#E07A5F;fontColor=default;" edge="1" parent="1">
          <mxGeometry width="50" height="50" relative="1" as="geometry">
            <mxPoint x="380" y="1710" as="sourcePoint" />
            <mxPoint x="380" y="1020" as="targetPoint" />
          </mxGeometry>
        </mxCell>
        <mxCell id="ZnbpXOZzZV5SWKvMDRzJ-4" value="" style="endArrow=none;html=1;rounded=0;labelBackgroundColor=none;strokeColor=#E07A5F;fontColor=default;" edge="1" parent="1">
          <mxGeometry width="50" height="50" relative="1" as="geometry">
            <mxPoint x="390" y="1020" as="sourcePoint" />
            <mxPoint x="540" y="1020" as="targetPoint" />
          </mxGeometry>
        </mxCell>
        <mxCell id="YydHtBKfeLd-p_gxx6qq-9" value="" style="endArrow=classic;html=1;rounded=0;entryX=0.011;entryY=1.013;entryDx=0;entryDy=0;entryPerimeter=0;labelBackgroundColor=none;strokeColor=#E07A5F;fontColor=default;" edge="1" parent="1" target="kfsKnqZZ0kBtD0sSIxjU-156">
          <mxGeometry width="50" height="50" relative="1" as="geometry">
            <mxPoint x="495" y="1580" as="sourcePoint" />
            <mxPoint x="490" y="984" as="targetPoint" />
          </mxGeometry>
        </mxCell>
        <mxCell id="YydHtBKfeLd-p_gxx6qq-12" value="" style="endArrow=classic;html=1;rounded=0;entryX=0.098;entryY=1;entryDx=0;entryDy=0;entryPerimeter=0;labelBackgroundColor=none;strokeColor=#E07A5F;fontColor=default;" edge="1" parent="1" target="kfsKnqZZ0kBtD0sSIxjU-156">
          <mxGeometry width="50" height="50" relative="1" as="geometry">
            <mxPoint x="616" y="1190" as="sourcePoint" />
            <mxPoint x="730" y="1020" as="targetPoint" />
          </mxGeometry>
        </mxCell>
        <mxCell id="ZnbpXOZzZV5SWKvMDRzJ-5" value="" style="endArrow=classic;html=1;rounded=0;labelBackgroundColor=none;strokeColor=#E07A5F;fontColor=default;" edge="1" parent="1">
          <mxGeometry width="50" height="50" relative="1" as="geometry">
            <mxPoint x="540" y="1020" as="sourcePoint" />
            <mxPoint x="540" y="980" as="targetPoint" />
            <Array as="points" />
          </mxGeometry>
        </mxCell>
        <mxCell id="YydHtBKfeLd-p_gxx6qq-13" value="" style="endArrow=none;html=1;rounded=0;labelBackgroundColor=none;strokeColor=#E07A5F;fontColor=default;" edge="1" parent="1">
          <mxGeometry width="50" height="50" relative="1" as="geometry">
            <mxPoint x="430" y="1190" as="sourcePoint" />
            <mxPoint x="620" y="1190" as="targetPoint" />
          </mxGeometry>
        </mxCell>
        <mxCell id="YydHtBKfeLd-p_gxx6qq-14" value="" style="endArrow=none;html=1;rounded=0;labelBackgroundColor=none;strokeColor=#E07A5F;fontColor=default;" edge="1" parent="1">
          <mxGeometry width="50" height="50" relative="1" as="geometry">
            <mxPoint x="430" y="1680" as="sourcePoint" />
            <mxPoint x="430" y="1190" as="targetPoint" />
          </mxGeometry>
        </mxCell>
        <mxCell id="YydHtBKfeLd-p_gxx6qq-15" value="" style="endArrow=none;html=1;rounded=0;labelBackgroundColor=none;strokeColor=#E07A5F;fontColor=default;" edge="1" parent="1">
          <mxGeometry width="50" height="50" relative="1" as="geometry">
            <mxPoint x="430" y="1680" as="sourcePoint" />
            <mxPoint x="700" y="1680" as="targetPoint" />
          </mxGeometry>
        </mxCell>
        <mxCell id="YydHtBKfeLd-p_gxx6qq-18" value="" style="endArrow=none;html=1;rounded=0;labelBackgroundColor=none;strokeColor=#E07A5F;fontColor=default;" edge="1" parent="1">
          <mxGeometry width="50" height="50" relative="1" as="geometry">
            <mxPoint x="700" y="1680" as="sourcePoint" />
            <mxPoint x="700" y="1660" as="targetPoint" />
          </mxGeometry>
        </mxCell>
        <mxCell id="ZnbpXOZzZV5SWKvMDRzJ-6" value="" style="endArrow=none;html=1;rounded=0;labelBackgroundColor=none;strokeColor=#E07A5F;fontColor=default;" edge="1" parent="1">
          <mxGeometry width="50" height="50" relative="1" as="geometry">
            <mxPoint x="380" y="1020" as="sourcePoint" />
            <mxPoint x="390" y="1020" as="targetPoint" />
          </mxGeometry>
        </mxCell>
        <mxCell id="qvk2EaItQMD5oTvAMzH2-4" value="" style="endArrow=classic;html=1;rounded=0;entryX=0.075;entryY=1.025;entryDx=0;entryDy=0;entryPerimeter=0;exitX=0.749;exitY=-0.133;exitDx=0;exitDy=0;exitPerimeter=0;labelBackgroundColor=none;strokeColor=#E07A5F;fontColor=default;" edge="1" parent="1" source="kfsKnqZZ0kBtD0sSIxjU-88" target="kfsKnqZZ0kBtD0sSIxjU-59">
          <mxGeometry width="50" height="50" relative="1" as="geometry">
            <mxPoint x="1110" y="420" as="sourcePoint" />
            <mxPoint x="1160" y="370" as="targetPoint" />
            <Array as="points">
              <mxPoint x="1220" y="250" />
              <mxPoint x="720" y="250" />
            </Array>
          </mxGeometry>
        </mxCell>
        <mxCell id="qvk2EaItQMD5oTvAMzH2-14" value="" style="endArrow=classic;html=1;rounded=0;exitX=0.676;exitY=1.1;exitDx=0;exitDy=0;exitPerimeter=0;labelBackgroundColor=none;strokeColor=#E07A5F;fontColor=default;" edge="1" parent="1" source="kfsKnqZZ0kBtD0sSIxjU-156">
          <mxGeometry width="50" height="50" relative="1" as="geometry">
            <mxPoint x="1270" y="810" as="sourcePoint" />
            <mxPoint x="690" y="390" as="targetPoint" />
            <Array as="points">
              <mxPoint x="1410" y="1040" />
              <mxPoint x="220" y="1030" />
              <mxPoint x="220" y="460" />
              <mxPoint x="690" y="460" />
            </Array>
          </mxGeometry>
        </mxCell>
      </root>
    </mxGraphModel>
  </diagram>
</mxfile>
